<mxfile host="app.diagrams.net" modified="2024-03-31T11:36:07.737Z" agent="Mozilla/5.0 (Macintosh; Intel Mac OS X 10_15_7) AppleWebKit/537.36 (KHTML, like Gecko) Chrome/123.0.0.0 Safari/537.36" etag="5mRfBAtIdSU_FGWZtXf4" version="24.2.1" type="device">
  <diagram name="Page-1" id="ywfIczBU01ZWZJIy362y">
    <mxGraphModel dx="1122" dy="728" grid="1" gridSize="10" guides="1" tooltips="1" connect="1" arrows="1" fold="1" page="1" pageScale="1" pageWidth="827" pageHeight="1169" math="0" shadow="0">
      <root>
        <mxCell id="0" />
        <mxCell id="1" parent="0" />
        <mxCell id="iuoKGFOXTq9gt0ygW-Gv-1" value="&lt;font style=&quot;font-size: 38px;&quot;&gt;Diary&lt;/font&gt;" style="rounded=0;whiteSpace=wrap;html=1;fillColor=#dae8fc;strokeColor=#6c8ebf;" vertex="1" parent="1">
          <mxGeometry x="100" y="210" width="120" height="60" as="geometry" />
        </mxCell>
        <mxCell id="iuoKGFOXTq9gt0ygW-Gv-3" value="&lt;font style=&quot;font-size: 23px;&quot;&gt;Title&lt;/font&gt;" style="rounded=1;whiteSpace=wrap;html=1;fillColor=#d5e8d4;strokeColor=#82b366;" vertex="1" parent="1">
          <mxGeometry x="100" y="300" width="80" height="50" as="geometry" />
        </mxCell>
        <mxCell id="iuoKGFOXTq9gt0ygW-Gv-4" value="&lt;font style=&quot;font-size: 23px;&quot;&gt;Text&lt;/font&gt;" style="rounded=1;whiteSpace=wrap;html=1;fillColor=#d5e8d4;strokeColor=#82b366;" vertex="1" parent="1">
          <mxGeometry x="100" y="360" width="80" height="50" as="geometry" />
        </mxCell>
        <mxCell id="iuoKGFOXTq9gt0ygW-Gv-5" value="&lt;font style=&quot;font-size: 23px;&quot;&gt;Date of register&lt;/font&gt;" style="rounded=1;whiteSpace=wrap;html=1;fillColor=#d5e8d4;strokeColor=#82b366;" vertex="1" parent="1">
          <mxGeometry x="100" y="420" width="90" height="50" as="geometry" />
        </mxCell>
        <mxCell id="iuoKGFOXTq9gt0ygW-Gv-8" value="" style="endArrow=classic;html=1;rounded=0;exitX=0;exitY=0.5;exitDx=0;exitDy=0;entryX=0;entryY=0.5;entryDx=0;entryDy=0;" edge="1" parent="1" source="iuoKGFOXTq9gt0ygW-Gv-1" target="iuoKGFOXTq9gt0ygW-Gv-5">
          <mxGeometry width="50" height="50" relative="1" as="geometry">
            <mxPoint x="190" y="520" as="sourcePoint" />
            <mxPoint x="240" y="470" as="targetPoint" />
            <Array as="points">
              <mxPoint x="40" y="240" />
              <mxPoint x="40" y="445" />
            </Array>
          </mxGeometry>
        </mxCell>
        <mxCell id="iuoKGFOXTq9gt0ygW-Gv-9" value="" style="endArrow=classic;html=1;rounded=0;entryX=0;entryY=0.5;entryDx=0;entryDy=0;" edge="1" parent="1" target="iuoKGFOXTq9gt0ygW-Gv-3">
          <mxGeometry width="50" height="50" relative="1" as="geometry">
            <mxPoint x="40" y="325" as="sourcePoint" />
            <mxPoint x="240" y="470" as="targetPoint" />
          </mxGeometry>
        </mxCell>
        <mxCell id="iuoKGFOXTq9gt0ygW-Gv-10" value="" style="endArrow=classic;html=1;rounded=0;entryX=0;entryY=0.5;entryDx=0;entryDy=0;" edge="1" parent="1">
          <mxGeometry width="50" height="50" relative="1" as="geometry">
            <mxPoint x="40" y="384.5" as="sourcePoint" />
            <mxPoint x="100" y="384.5" as="targetPoint" />
          </mxGeometry>
        </mxCell>
        <mxCell id="iuoKGFOXTq9gt0ygW-Gv-13" style="edgeStyle=orthogonalEdgeStyle;rounded=0;orthogonalLoop=1;jettySize=auto;html=1;entryX=0.5;entryY=0;entryDx=0;entryDy=0;" edge="1" parent="1" source="iuoKGFOXTq9gt0ygW-Gv-12" target="iuoKGFOXTq9gt0ygW-Gv-1">
          <mxGeometry relative="1" as="geometry" />
        </mxCell>
        <mxCell id="iuoKGFOXTq9gt0ygW-Gv-21" style="edgeStyle=orthogonalEdgeStyle;rounded=0;orthogonalLoop=1;jettySize=auto;html=1;entryX=0.5;entryY=0;entryDx=0;entryDy=0;" edge="1" parent="1" source="iuoKGFOXTq9gt0ygW-Gv-12" target="iuoKGFOXTq9gt0ygW-Gv-14">
          <mxGeometry relative="1" as="geometry" />
        </mxCell>
        <mxCell id="iuoKGFOXTq9gt0ygW-Gv-33" style="edgeStyle=orthogonalEdgeStyle;rounded=0;orthogonalLoop=1;jettySize=auto;html=1;entryX=0.5;entryY=0;entryDx=0;entryDy=0;" edge="1" parent="1" source="iuoKGFOXTq9gt0ygW-Gv-12" target="iuoKGFOXTq9gt0ygW-Gv-32">
          <mxGeometry relative="1" as="geometry" />
        </mxCell>
        <mxCell id="iuoKGFOXTq9gt0ygW-Gv-12" value="&lt;font style=&quot;font-size: 49px;&quot;&gt;PROJECT&lt;/font&gt;" style="rounded=0;whiteSpace=wrap;html=1;fillColor=#ffe6cc;strokeColor=#d79b00;" vertex="1" parent="1">
          <mxGeometry x="200" y="80" width="360" height="80" as="geometry" />
        </mxCell>
        <mxCell id="iuoKGFOXTq9gt0ygW-Gv-14" value="&lt;font style=&quot;font-size: 19px;&quot;&gt;NoteManager&lt;/font&gt;" style="rounded=0;whiteSpace=wrap;html=1;fillColor=#dae8fc;strokeColor=#6c8ebf;" vertex="1" parent="1">
          <mxGeometry x="560" y="210" width="120" height="60" as="geometry" />
        </mxCell>
        <mxCell id="iuoKGFOXTq9gt0ygW-Gv-22" value="&lt;font style=&quot;font-size: 28px;&quot;&gt;Add&lt;/font&gt;" style="rounded=1;whiteSpace=wrap;html=1;fillColor=#f8cecc;strokeColor=#b85450;" vertex="1" parent="1">
          <mxGeometry x="600" y="300" width="90" height="50" as="geometry" />
        </mxCell>
        <mxCell id="iuoKGFOXTq9gt0ygW-Gv-24" value="&lt;font style=&quot;font-size: 15px;&quot;&gt;FindByName&lt;/font&gt;" style="rounded=1;whiteSpace=wrap;html=1;fillColor=#f8cecc;strokeColor=#b85450;" vertex="1" parent="1">
          <mxGeometry x="600" y="370" width="90" height="60" as="geometry" />
        </mxCell>
        <mxCell id="iuoKGFOXTq9gt0ygW-Gv-25" value="&lt;font style=&quot;font-size: 22px;&quot;&gt;Remove&lt;/font&gt;" style="rounded=1;whiteSpace=wrap;html=1;fillColor=#f8cecc;strokeColor=#b85450;" vertex="1" parent="1">
          <mxGeometry x="600" y="450" width="90" height="50" as="geometry" />
        </mxCell>
        <mxCell id="iuoKGFOXTq9gt0ygW-Gv-26" value="&lt;font style=&quot;font-size: 28px;&quot;&gt;Edit&lt;/font&gt;" style="rounded=1;whiteSpace=wrap;html=1;fillColor=#f8cecc;strokeColor=#b85450;" vertex="1" parent="1">
          <mxGeometry x="600" y="520" width="90" height="50" as="geometry" />
        </mxCell>
        <mxCell id="iuoKGFOXTq9gt0ygW-Gv-27" value="" style="endArrow=classic;html=1;rounded=0;exitX=1;exitY=0.5;exitDx=0;exitDy=0;entryX=1;entryY=0.5;entryDx=0;entryDy=0;" edge="1" parent="1" source="iuoKGFOXTq9gt0ygW-Gv-14" target="iuoKGFOXTq9gt0ygW-Gv-26">
          <mxGeometry width="50" height="50" relative="1" as="geometry">
            <mxPoint x="410" y="450" as="sourcePoint" />
            <mxPoint x="460" y="400" as="targetPoint" />
            <Array as="points">
              <mxPoint x="790" y="240" />
              <mxPoint x="790" y="545" />
            </Array>
          </mxGeometry>
        </mxCell>
        <mxCell id="iuoKGFOXTq9gt0ygW-Gv-28" value="" style="endArrow=classic;html=1;rounded=0;entryX=1;entryY=0.5;entryDx=0;entryDy=0;" edge="1" parent="1" target="iuoKGFOXTq9gt0ygW-Gv-22">
          <mxGeometry width="50" height="50" relative="1" as="geometry">
            <mxPoint x="790" y="325" as="sourcePoint" />
            <mxPoint x="460" y="400" as="targetPoint" />
          </mxGeometry>
        </mxCell>
        <mxCell id="iuoKGFOXTq9gt0ygW-Gv-29" value="" style="endArrow=classic;html=1;rounded=0;" edge="1" parent="1">
          <mxGeometry width="50" height="50" relative="1" as="geometry">
            <mxPoint x="790" y="400" as="sourcePoint" />
            <mxPoint x="690" y="400" as="targetPoint" />
          </mxGeometry>
        </mxCell>
        <mxCell id="iuoKGFOXTq9gt0ygW-Gv-30" value="" style="endArrow=classic;html=1;rounded=0;" edge="1" parent="1">
          <mxGeometry width="50" height="50" relative="1" as="geometry">
            <mxPoint x="790" y="475" as="sourcePoint" />
            <mxPoint x="690" y="475" as="targetPoint" />
          </mxGeometry>
        </mxCell>
        <mxCell id="iuoKGFOXTq9gt0ygW-Gv-44" style="edgeStyle=orthogonalEdgeStyle;rounded=0;orthogonalLoop=1;jettySize=auto;html=1;entryX=0.5;entryY=0;entryDx=0;entryDy=0;" edge="1" parent="1" source="iuoKGFOXTq9gt0ygW-Gv-32" target="iuoKGFOXTq9gt0ygW-Gv-34">
          <mxGeometry relative="1" as="geometry" />
        </mxCell>
        <mxCell id="iuoKGFOXTq9gt0ygW-Gv-46" style="edgeStyle=orthogonalEdgeStyle;rounded=0;orthogonalLoop=1;jettySize=auto;html=1;entryX=0;entryY=0.5;entryDx=0;entryDy=0;" edge="1" parent="1" source="iuoKGFOXTq9gt0ygW-Gv-32" target="iuoKGFOXTq9gt0ygW-Gv-14">
          <mxGeometry relative="1" as="geometry" />
        </mxCell>
        <mxCell id="iuoKGFOXTq9gt0ygW-Gv-32" value="&lt;font style=&quot;font-size: 36px;&quot;&gt;Main&lt;/font&gt;" style="rounded=0;whiteSpace=wrap;html=1;fillColor=#dae8fc;strokeColor=#6c8ebf;" vertex="1" parent="1">
          <mxGeometry x="280" y="340" width="120" height="60" as="geometry" />
        </mxCell>
        <mxCell id="iuoKGFOXTq9gt0ygW-Gv-34" value="Diary" style="shape=table;startSize=30;container=1;collapsible=0;childLayout=tableLayout;fixedRows=1;rowLines=0;fontStyle=0;strokeColor=#005700;fontSize=16;fillColor=#008a00;fontColor=#ffffff;" vertex="1" parent="1">
          <mxGeometry x="310" y="460" width="140" height="170" as="geometry" />
        </mxCell>
        <mxCell id="iuoKGFOXTq9gt0ygW-Gv-35" value="" style="shape=tableRow;horizontal=0;startSize=0;swimlaneHead=0;swimlaneBody=0;top=0;left=0;bottom=0;right=0;collapsible=0;dropTarget=0;fillColor=#60a917;points=[[0,0.5],[1,0.5]];portConstraint=eastwest;strokeColor=#2D7600;fontSize=16;fontColor=#ffffff;" vertex="1" parent="iuoKGFOXTq9gt0ygW-Gv-34">
          <mxGeometry y="30" width="140" height="50" as="geometry" />
        </mxCell>
        <mxCell id="iuoKGFOXTq9gt0ygW-Gv-36" value="1" style="shape=partialRectangle;html=1;whiteSpace=wrap;connectable=0;fillColor=#008a00;top=0;left=0;bottom=0;right=0;overflow=hidden;pointerEvents=1;strokeColor=#005700;fontSize=16;fontColor=#ffffff;" vertex="1" parent="iuoKGFOXTq9gt0ygW-Gv-35">
          <mxGeometry width="31" height="50" as="geometry">
            <mxRectangle width="31" height="50" as="alternateBounds" />
          </mxGeometry>
        </mxCell>
        <mxCell id="iuoKGFOXTq9gt0ygW-Gv-37" value="Title" style="shape=partialRectangle;html=1;whiteSpace=wrap;connectable=0;fillColor=#60a917;top=0;left=0;bottom=0;right=0;align=left;spacingLeft=6;overflow=hidden;strokeColor=#2D7600;fontSize=16;fontColor=#ffffff;" vertex="1" parent="iuoKGFOXTq9gt0ygW-Gv-35">
          <mxGeometry x="31" width="109" height="50" as="geometry">
            <mxRectangle width="109" height="50" as="alternateBounds" />
          </mxGeometry>
        </mxCell>
        <mxCell id="iuoKGFOXTq9gt0ygW-Gv-38" value="" style="shape=tableRow;horizontal=0;startSize=0;swimlaneHead=0;swimlaneBody=0;top=0;left=0;bottom=0;right=0;collapsible=0;dropTarget=0;fillColor=#60a917;points=[[0,0.5],[1,0.5]];portConstraint=eastwest;strokeColor=#2D7600;fontSize=16;fontColor=#ffffff;" vertex="1" parent="iuoKGFOXTq9gt0ygW-Gv-34">
          <mxGeometry y="80" width="140" height="30" as="geometry" />
        </mxCell>
        <mxCell id="iuoKGFOXTq9gt0ygW-Gv-39" value="2" style="shape=partialRectangle;html=1;whiteSpace=wrap;connectable=0;fillColor=#008a00;top=0;left=0;bottom=0;right=0;overflow=hidden;strokeColor=#005700;fontSize=16;fontColor=#ffffff;" vertex="1" parent="iuoKGFOXTq9gt0ygW-Gv-38">
          <mxGeometry width="31" height="30" as="geometry">
            <mxRectangle width="31" height="30" as="alternateBounds" />
          </mxGeometry>
        </mxCell>
        <mxCell id="iuoKGFOXTq9gt0ygW-Gv-40" value="Text" style="shape=partialRectangle;html=1;whiteSpace=wrap;connectable=0;fillColor=#60a917;top=0;left=0;bottom=0;right=0;align=left;spacingLeft=6;overflow=hidden;strokeColor=#2D7600;fontSize=16;fontColor=#ffffff;" vertex="1" parent="iuoKGFOXTq9gt0ygW-Gv-38">
          <mxGeometry x="31" width="109" height="30" as="geometry">
            <mxRectangle width="109" height="30" as="alternateBounds" />
          </mxGeometry>
        </mxCell>
        <mxCell id="iuoKGFOXTq9gt0ygW-Gv-41" value="" style="shape=tableRow;horizontal=0;startSize=0;swimlaneHead=0;swimlaneBody=0;top=0;left=0;bottom=0;right=0;collapsible=0;dropTarget=0;fillColor=#60a917;points=[[0,0.5],[1,0.5]];portConstraint=eastwest;strokeColor=#2D7600;fontSize=16;fontColor=#ffffff;" vertex="1" parent="iuoKGFOXTq9gt0ygW-Gv-34">
          <mxGeometry y="110" width="140" height="60" as="geometry" />
        </mxCell>
        <mxCell id="iuoKGFOXTq9gt0ygW-Gv-42" value="3" style="shape=partialRectangle;html=1;whiteSpace=wrap;connectable=0;fillColor=#008a00;top=0;left=0;bottom=0;right=0;overflow=hidden;strokeColor=#005700;fontSize=16;fontColor=#ffffff;" vertex="1" parent="iuoKGFOXTq9gt0ygW-Gv-41">
          <mxGeometry width="31" height="60" as="geometry">
            <mxRectangle width="31" height="60" as="alternateBounds" />
          </mxGeometry>
        </mxCell>
        <mxCell id="iuoKGFOXTq9gt0ygW-Gv-43" value="Date of Register" style="shape=partialRectangle;html=1;whiteSpace=wrap;connectable=0;fillColor=#60a917;top=0;left=0;bottom=0;right=0;align=left;spacingLeft=6;overflow=hidden;strokeColor=#2D7600;fontSize=16;fontColor=#ffffff;" vertex="1" parent="iuoKGFOXTq9gt0ygW-Gv-41">
          <mxGeometry x="31" width="109" height="60" as="geometry">
            <mxRectangle width="109" height="60" as="alternateBounds" />
          </mxGeometry>
        </mxCell>
        <mxCell id="iuoKGFOXTq9gt0ygW-Gv-45" style="edgeStyle=orthogonalEdgeStyle;rounded=0;orthogonalLoop=1;jettySize=auto;html=1;entryX=1;entryY=0.5;entryDx=0;entryDy=0;" edge="1" parent="1" source="iuoKGFOXTq9gt0ygW-Gv-38" target="iuoKGFOXTq9gt0ygW-Gv-1">
          <mxGeometry relative="1" as="geometry" />
        </mxCell>
        <mxCell id="iuoKGFOXTq9gt0ygW-Gv-47" value="" style="shape=flexArrow;endArrow=classic;html=1;rounded=0;exitX=0;exitY=0.5;exitDx=0;exitDy=0;entryX=0;entryY=0.5;entryDx=0;entryDy=0;fillColor=#e1d5e7;strokeColor=#9673a6;" edge="1" parent="1" source="iuoKGFOXTq9gt0ygW-Gv-24" target="iuoKGFOXTq9gt0ygW-Gv-25">
          <mxGeometry width="50" height="50" relative="1" as="geometry">
            <mxPoint x="410" y="430" as="sourcePoint" />
            <mxPoint x="530" y="450" as="targetPoint" />
            <Array as="points">
              <mxPoint x="560" y="400" />
              <mxPoint x="560" y="475" />
            </Array>
          </mxGeometry>
        </mxCell>
      </root>
    </mxGraphModel>
  </diagram>
</mxfile>
